<svg width="26" height="29" viewBox="0 0 26 29" fill="none" xmlns="http://www.w3.org/2000/svg">
<path d="M21.8445 3.56061C19.5321 1.3626 16.3262 -0.000834578 12.7958 3.83275e-07C9.26631 -0.000834578 6.06 1.3626 3.74801 3.56061C1.43432 5.757 -0.000819921 8.80305 3.91279e-07 12.156C-0.000819921 15.3331 1.28824 18.2351 3.39147 20.3973C5.26336 22.3237 7.78963 23.6729 10.6329 24.1333V27.3947C10.6329 27.8246 10.8948 28.2151 11.3049 28.3966C11.7151 28.5782 12.1989 28.5171 12.5447 28.2407L21.0247 21.4655L21.0226 21.4667C22.6257 20.1933 23.7905 18.7867 24.5331 17.2254C25.2779 15.6645 25.5929 13.9726 25.5916 12.156C25.5925 8.80305 24.1577 5.757 21.8445 3.56061ZM22.414 16.3139C21.8278 17.5401 20.9163 18.6666 19.5291 19.7723L19.5274 19.7739L12.9595 25.0212V23.1635C12.9595 22.59 12.4963 22.1108 11.8951 22.0623C9.21492 21.8453 6.82582 20.6712 5.10094 18.8978C3.37734 17.1228 2.3274 14.7616 2.32658 12.156C2.3274 9.406 3.49693 6.92667 5.39326 5.1231C7.29117 3.32159 9.90147 2.21064 12.7958 2.2102C15.6906 2.21064 18.3004 3.32159 20.1988 5.1231C22.0956 6.92661 23.2642 9.406 23.2651 12.156C23.2642 13.7368 22.9976 15.0864 22.414 16.3139Z" fill="#BBBBBB"/>
<path d="M6.68865 10.6823C5.83201 10.6823 5.13732 11.3422 5.13732 12.156C5.13732 12.9698 5.83201 13.6298 6.68865 13.6298C7.54488 13.6298 8.23957 12.9698 8.23957 12.156C8.23957 11.3422 7.54494 10.6823 6.68865 10.6823Z" fill="#BBBBBB"/>
<path d="M12.7958 10.6823C11.9396 10.6823 11.2449 11.3422 11.2449 12.156C11.2449 12.9698 11.9396 13.6298 12.7958 13.6298C13.6525 13.6298 14.3472 12.9698 14.3472 12.156C14.3472 11.3422 13.6525 10.6823 12.7958 10.6823Z" fill="#BBBBBB"/>
<path d="M18.9034 10.6823C18.0468 10.6823 17.3525 11.3422 17.3525 12.156C17.3525 12.9698 18.0467 13.6298 18.9034 13.6298C19.76 13.6298 20.4547 12.9698 20.4547 12.156C20.4547 11.3422 19.76 10.6823 18.9034 10.6823Z" fill="#BBBBBB"/>
</svg>
