<svg width="28" height="28" viewBox="0 0 28 28" fill="none" xmlns="http://www.w3.org/2000/svg">
<path d="M11.5929 16.7432L26.1865 2.15507M12.0078 17.3993L15.3169 24.0176C16.1166 25.6169 16.5164 26.4166 17.0201 26.6311C17.4573 26.8172 17.957 26.7834 18.3652 26.5404C18.8356 26.2603 19.1245 25.4141 19.7023 23.7219L25.9547 5.41133C26.4582 3.93688 26.7099 3.19964 26.5376 2.71195C26.3877 2.28768 26.054 1.95394 25.6298 1.80404C25.142 1.63174 24.4048 1.88348 22.9303 2.38695L4.61969 8.63936C2.92749 9.21719 2.08138 9.50611 1.80129 9.97649C1.55821 10.3847 1.52453 10.8844 1.71062 11.3214C1.92506 11.8252 2.72475 12.2251 4.32411 13.0247L10.9424 16.3339C11.206 16.4657 11.3377 16.5315 11.4518 16.6195C11.5532 16.6977 11.644 16.7885 11.722 16.8898C11.8102 17.004 11.876 17.1357 12.0078 17.3993Z" stroke="#BBBBBB" stroke-width="2.5" stroke-linecap="round" stroke-linejoin="round"/>
</svg>
